<svg id="Layer_1" enable-background="new 0 0 256 256" height="512" viewBox="0 0 256 256" width="512" xmlns="http://www.w3.org/2000/svg"><g><path d="m127.501 184.862c-31.354 0-56.862-25.509-56.862-56.862s25.509-56.862 56.862-56.862c30.173 0 55.136 23.893 56.766 53.752h11.147c.938 0 1.799.526 2.226 1.362.428.836.351 1.841-.199 2.602l-19.563 27.082c-.47.65-1.224 1.036-2.026 1.036s-1.557-.386-2.026-1.036l-19.563-27.082c-.55-.761-.627-1.766-.199-2.602.427-.836 1.287-1.362 2.226-1.362h12.936c1.381 0 2.5 1.119 2.5 2.5s-1.119 2.5-2.5 2.5h-8.046l14.673 20.313 14.673-20.313h-8.677c-1.37 0-2.484-1.103-2.5-2.473-.313-28.275-23.571-51.279-51.847-51.279-28.597 0-51.862 23.266-51.862 51.862s23.266 51.862 51.862 51.862c13.728 0 26.937-5.49 36.626-15.144l-5.644-5.141c-8.24 8.075-19.396 12.661-30.982 12.661-24.394 0-44.239-19.846-44.239-44.239s19.846-44.239 44.239-44.239c19.733 0 37.246 13.274 42.587 32.282.373 1.329-.401 2.709-1.731 3.083-1.328.372-2.709-.402-3.083-1.731-4.736-16.859-20.27-28.634-37.772-28.634-21.637 0-39.239 17.603-39.239 39.239s17.603 39.239 39.239 39.239c11.019 0 21.597-4.676 29.021-12.829.446-.49 1.069-.783 1.732-.813.647-.033 1.309.202 1.8.648l9.332 8.502c1.021.93 1.095 2.511.165 3.531-10.759 11.812-26.086 18.585-42.052 18.585z" fill="#a58bc9"/><g fill="#846f75"><path d="m219.929 106.434c-.001 0-.002-.001-.003-.001l-24.573-6.332 12.899-21.855c2.685-4.56 1.946-10.356-1.795-14.098l-14.605-14.606c-3.742-3.738-9.539-4.476-14.1-1.793l-21.854 12.898-6.333-24.576c-1.326-5.121-5.948-8.698-11.238-8.698h-20.654c-5.29 0-9.912 3.577-11.239 8.701l-6.332 24.573-21.856-12.9c-4.563-2.684-10.357-1.944-14.098 1.795l-14.605 14.605c-3.741 3.741-4.479 9.538-1.794 14.1l12.898 21.854-24.576 6.333c-5.122 1.326-8.699 5.948-8.699 11.238v20.654c0 5.291 3.577 9.912 8.702 11.24l24.573 6.331-12.899 21.855c-2.685 4.561-1.946 10.357 1.795 14.099l14.605 14.605c3.739 3.74 9.537 4.478 14.1 1.794l21.854-12.898 6.333 24.576c1.327 5.122 5.948 8.699 11.238 8.699h20.654c5.29 0 9.911-3.577 11.239-8.702l6.332-24.573 21.855 12.899c4.562 2.684 10.355 1.946 14.098-1.795l14.605-14.605c3.741-3.741 4.479-9.538 1.794-14.101l-12.898-21.854 24.576-6.332c5.122-1.327 8.699-5.948 8.699-11.239v-20.654c.001-5.289-3.576-9.911-8.698-11.237zm3.699 31.892c0 3.013-2.037 5.644-4.95 6.398l-27.792 7.16c-.761.196-1.385.738-1.686 1.464-.301.727-.243 1.551.156 2.228l14.587 24.714c1.528 2.596 1.108 5.896-1.021 8.026l-14.605 14.605c-2.131 2.129-5.43 2.548-8.023 1.022l-24.716-14.588c-.676-.398-1.501-.457-2.228-.156-.726.301-1.268.925-1.464 1.686l-7.16 27.789c-.756 2.916-3.387 4.953-6.398 4.953h-20.654c-3.012 0-5.643-2.037-6.397-4.95l-7.161-27.792c-.196-.761-.738-1.385-1.464-1.686-.308-.128-.633-.19-.957-.19-.441 0-.881.117-1.271.347l-24.714 14.587c-2.595 1.528-5.896 1.107-8.025-1.021l-14.605-14.605c-2.13-2.13-2.55-5.431-1.022-8.024l14.588-24.716c.399-.677.457-1.501.156-2.228-.301-.726-.925-1.268-1.686-1.464l-27.789-7.159c-2.916-.756-4.953-3.387-4.953-6.399v-20.654c0-3.012 2.037-5.643 4.95-6.397l27.792-7.161c.761-.196 1.385-.738 1.686-1.464.301-.727.243-1.551-.156-2.228l-14.589-24.715c-1.528-2.596-1.108-5.896 1.021-8.025l14.605-14.605c2.129-2.129 5.427-2.553 8.023-1.022l24.716 14.588c.676.397 1.501.455 2.228.156.726-.301 1.268-.925 1.464-1.686l7.16-27.789c.756-2.916 3.387-4.952 6.398-4.952h20.654c3.012 0 5.643 2.036 6.397 4.949l7.161 27.792c.196.761.738 1.385 1.464 1.686.728.301 1.552.242 2.228-.156l24.714-14.587c2.593-1.526 5.895-1.107 8.025 1.021l14.605 14.605c2.13 2.13 2.55 5.43 1.022 8.023l-14.588 24.716c-.399.677-.457 1.501-.156 2.228.301.726.925 1.268 1.686 1.464l27.789 7.16c2.916.756 4.953 3.387 4.953 6.398v20.654z"/><path d="m145.132 108.78c-2.177 0-4.223.848-5.761 2.387l-16.382 16.382-7.357-7.358c-1.539-1.539-3.585-2.387-5.762-2.387s-4.223.848-5.761 2.387c-3.178 3.177-3.178 8.347 0 11.523l13.119 13.119c1.539 1.539 3.585 2.387 5.761 2.387s4.222-.848 5.761-2.387l22.143-22.143c1.539-1.539 2.387-3.585 2.387-5.762s-.848-4.223-2.386-5.762c-1.54-1.538-3.585-2.386-5.762-2.386zm2.225 10.374-22.143 22.144c-1.172 1.172-3.279 1.172-4.451 0l-13.119-13.119c-1.228-1.228-1.228-3.226.001-4.453.594-.595 1.384-.922 2.225-.922s1.631.327 2.226.922l9.126 9.126c.977.977 2.559.977 3.535 0l18.15-18.149c1.188-1.189 3.261-1.189 4.45 0 .595.595.922 1.386.922 2.227s-.327 1.63-.922 2.224z"/></g></g></svg>