<?xml version="1.0" encoding="utf-8"?>
<!-- Generator: Adobe Illustrator 24.0.1, SVG Export Plug-In . SVG Version: 6.00 Build 0)  -->
<svg version="1.0" id="Layer_1" xmlns="http://www.w3.org/2000/svg" xmlns:xlink="http://www.w3.org/1999/xlink" x="0px" y="0px"
	 viewBox="0 0 1000 1000" style="enable-background:new 0 0 1000 1000;" xml:space="preserve">
<style type="text/css">
	.st0{fill:#053D58;}
	.st1{fill:#B65838;}
	.st2{fill:#033C57;}
</style>
<g>
	<g id="layer101">
		<path id="path53" class="st0" d="M747.2,675.5V551.6H605.9V448.5h141.3V333.6V218.8h124.5v291.5V800h-62.3h-62.3L747.2,675.5
			L747.2,675.5z"/>
		<g id="layer102">
			<path id="path55" class="st1" d="M524.4,800c-14.6-38.1-27.9-74.2-38.3-103.8c80.7-22.1,109.4-46.7,119.8-104.4H725
				C706.9,721.1,614.9,774.2,524.4,800z"/>
			<path id="path57" class="st1" d="M364.4,379c-16.3-42.3-30.1-78.6-46.1-120.3C474.7,141.3,699,204.6,725,408.3H605.9
				C572.4,306.8,444.8,291.9,364.4,379z"/>
		</g>
	</g>
	<path id="path61" class="st1" d="M581.2,741.7"/>
	<path id="path63" class="st1" d="M778.1,562.2"/>
	<path id="path71" class="st2" d="M598,763.3"/>
	<path id="path73" class="st1" d="M598,763.3"/>
	<polygon class="st0" points="303.8,270.4 238.9,426 304.7,596 168.1,596 128.3,691.5 341.7,691.5 383.7,800 508.2,800 	"/>
</g>
</svg>
